<svg width="32" height="32" viewBox="0 0 100 100" fill="none" xmlns="http://www.w3.org/2000/svg">
  <!-- Top cluster -->
  <line x1="50.0" y1="30.0" x2="50.0" y2="8.0" stroke="#3EBF70" stroke-width="6" stroke-linecap="round"/>
  <line x1="58.2" y1="27.4" x2="62.3" y2="16.2" stroke="#3EBF70" stroke-width="3.5" stroke-linecap="round" opacity="0.65"/>
  <line x1="42.5" y1="29.3" x2="38.4" y2="18.1" stroke="#3EBF70" stroke-width="3.5" stroke-linecap="round" opacity="0.65"/>

  <!-- Right cluster -->
  <line x1="70.0" y1="50.0" x2="94.0" y2="50.0" stroke="#3EBF70" stroke-width="6" stroke-linecap="round" opacity="0.9"/>
  <line x1="74.7" y1="58.0" x2="86.1" y2="61.7" stroke="#3EBF70" stroke-width="3" stroke-linecap="round" opacity="0.55"/>
  <line x1="72.8" y1="42.6" x2="84.2" y2="38.9" stroke="#3EBF70" stroke-width="3" stroke-linecap="round" opacity="0.55"/>

  <!-- Bottom cluster -->
  <line x1="50.0" y1="70.0" x2="50.0" y2="90.0" stroke="#3EBF70" stroke-width="6" stroke-linecap="round" opacity="0.85"/>
  <line x1="42.0" y1="74.7" x2="39.5" y2="82.3" stroke="#3EBF70" stroke-width="3.5" stroke-linecap="round" opacity="0.55"/>
  <line x1="57.4" y1="72.8" x2="60.8" y2="83.3" stroke="#3EBF70" stroke-width="3.5" stroke-linecap="round" opacity="0.55"/>

  <!-- Left cluster -->
  <line x1="30.0" y1="50.0" x2="8.0" y2="50.0" stroke="#3EBF70" stroke-width="6" stroke-linecap="round" opacity="0.95"/>
  <line x1="27.2" y1="42.6" x2="15.8" y2="38.9" stroke="#3EBF70" stroke-width="3" stroke-linecap="round" opacity="0.6"/>
  <line x1="25.3" y1="58.0" x2="14.8" y2="61.4" stroke="#3EBF70" stroke-width="3" stroke-linecap="round" opacity="0.6"/>

  <!-- Center crosshair ring -->
  <circle cx="50" cy="50" r="13" stroke="#3EBF70" stroke-width="2.5" fill="none" opacity="0.75"/>

  <!-- Crosshair lines -->
  <line x1="50" y1="40" x2="50" y2="45" stroke="#3EBF70" stroke-width="2.5" stroke-linecap="round"/>
  <line x1="50" y1="55" x2="50" y2="60" stroke="#3EBF70" stroke-width="2.5" stroke-linecap="round"/>
  <line x1="40" y1="50" x2="45" y2="50" stroke="#3EBF70" stroke-width="2.5" stroke-linecap="round"/>
  <line x1="55" y1="50" x2="60" y2="50" stroke="#3EBF70" stroke-width="2.5" stroke-linecap="round"/>

  <!-- Center dot -->
  <circle cx="50" cy="50" r="3" fill="#3EBF70"/>
</svg>
